<svg width="811" height="161" viewBox="0 0 811 161" fill="none" xmlns="http://www.w3.org/2000/svg">
<g clip-path="url(#clip0_204_1242)">
<rect x="808.501" y="147.111" width="806.002" height="145" transform="rotate(-180 808.501 147.111)" stroke="#102342" stroke-width="5"/>
<path d="M683.683 97.7311L683.683 98.4511L705.859 98.4511L705.859 97.7311C704.611 97.5871 703.411 97.3711 702.259 97.0831C701.059 96.7951 700.123 96.2431 699.451 95.4271C699.163 95.0911 698.971 94.6111 698.875 93.9871C698.731 93.3631 698.635 92.6431 698.587 91.8271C698.491 91.0591 698.443 90.2431 698.443 89.3791C698.443 88.5151 698.443 87.6511 698.443 86.7871L698.443 72.7471C698.443 71.4511 698.443 70.0591 698.443 68.5711C698.443 67.1311 698.443 65.7151 698.443 64.3231C698.443 62.9791 698.467 61.7311 698.515 60.5791C698.515 59.4271 698.515 58.5151 698.515 57.8431C698.563 56.4991 698.659 55.1551 698.803 53.8111C698.899 52.4671 699.091 51.2671 699.379 50.2111C699.715 49.1071 700.267 48.1711 701.035 47.4031C701.755 46.6351 702.715 46.2511 703.915 46.2511C704.299 46.2511 704.707 46.3471 705.139 46.5391C705.571 46.6831 705.907 46.9231 706.147 47.2591L706.147 47.4751C705.139 47.6191 704.299 47.9311 703.627 48.4111C702.955 48.9391 702.619 49.7551 702.619 50.8591C702.619 51.8191 702.979 52.6351 703.699 53.3071C704.371 54.0271 705.187 54.3871 706.147 54.3871C707.251 54.3871 708.235 54.0271 709.099 53.3071C709.963 52.5871 710.395 51.6511 710.395 50.4991C710.395 49.5871 710.227 48.7951 709.891 48.1231C709.507 47.4991 709.027 46.9951 708.451 46.6111C707.827 46.2751 707.155 46.0111 706.435 45.8191C705.667 45.6271 704.899 45.5311 704.131 45.5311C702.739 45.5311 701.227 45.7951 699.595 46.3231C697.915 46.8511 696.307 47.7151 694.771 48.9151C693.523 49.8751 692.515 50.9071 691.747 52.0111C690.979 53.1631 690.595 54.5311 690.595 56.1151L690.595 73.0351C690.595 74.5231 690.595 75.8911 690.595 77.1391C690.595 78.4351 690.595 79.6831 690.595 80.8831C690.595 82.0831 690.595 83.2591 690.595 84.4111C690.547 85.6111 690.523 86.8111 690.523 88.0111C690.475 89.1151 690.427 90.2911 690.379 91.5391C690.331 92.8351 690.115 93.8671 689.731 94.6351C689.107 95.7871 688.195 96.5551 686.995 96.9391C685.795 97.3231 684.691 97.5871 683.683 97.7311ZM650.318 46.6111L650.318 47.3311C650.174 47.3311 649.838 47.3791 649.31 47.4751C648.734 47.5711 648.158 47.7391 647.582 47.9791C646.958 48.2191 646.43 48.5551 645.998 48.9871C645.518 49.4191 645.278 49.9711 645.278 50.6431C645.278 51.0751 645.422 51.7711 645.71 52.7311C645.95 53.7391 646.31 54.9391 646.79 56.3311C647.27 57.7711 647.822 59.3551 648.446 61.0831C649.07 62.8111 649.742 64.6111 650.462 66.4831L669.614 66.4831C670.334 64.6591 671.03 62.9071 671.702 61.2271C672.374 59.5951 673.046 57.9391 673.718 56.2591C674.726 53.6671 675.23 51.8431 675.23 50.7871C675.23 50.1631 675.038 49.6351 674.654 49.2031C674.27 48.8191 673.79 48.4831 673.214 48.1951C672.59 47.9551 671.942 47.7631 671.27 47.6191C670.55 47.5231 669.878 47.4271 669.254 47.3311L669.254 46.6111L684.59 46.6111L684.59 47.4031C683.342 47.5471 682.286 47.8831 681.422 48.4111C680.51 48.9391 679.982 49.2991 679.838 49.4911C679.502 49.8271 678.95 50.6191 678.182 51.8671C677.414 53.1151 676.478 54.9631 675.374 57.4111C674.366 59.6671 673.238 62.2351 671.99 65.1151C670.742 67.9951 669.47 70.9471 668.174 73.9711C666.83 77.0431 665.51 80.1151 664.214 83.1871C662.918 86.3071 661.694 89.2111 660.542 91.8991L661.262 93.4831C660.398 93.8671 659.63 94.3231 658.958 94.8511C658.238 95.3791 657.614 95.9311 657.086 96.5071C656.558 97.0831 656.126 97.6351 655.79 98.1631C655.406 98.6911 655.118 99.1231 654.926 99.4591L654.35 99.4591C652.862 95.4751 651.446 91.6831 650.102 88.0831C648.758 84.5311 647.486 81.0991 646.286 77.7871C645.038 74.4751 643.838 71.2591 642.686 68.1391C641.534 65.0671 640.382 62.0191 639.23 58.9951C638.702 57.5071 638.222 56.2591 637.79 55.2511C637.31 54.2911 636.782 53.1871 636.206 51.9391C636.11 51.7471 635.894 51.4111 635.558 50.9311C635.222 50.4511 634.79 49.9471 634.262 49.4191C633.686 48.9391 632.99 48.5071 632.174 48.1231C631.358 47.7391 630.398 47.5231 629.294 47.4751L629.294 46.6111L650.318 46.6111ZM659.75 90.2431C660.038 89.6191 660.47 88.6351 661.046 87.2911C661.574 85.9471 662.246 84.3151 663.062 82.3951C663.878 80.4751 664.79 78.2911 665.798 75.8431C666.758 73.4431 667.814 70.8271 668.966 67.9951L651.038 67.9951C651.854 70.1551 652.694 72.3151 653.558 74.4751C654.374 76.6351 655.19 78.6991 656.006 80.6671C656.774 82.6831 657.494 84.5071 658.166 86.1391C658.79 87.8191 659.318 89.1871 659.75 90.2431ZM570.678 97.7311L570.678 98.4511L588.534 98.4511L588.534 97.7311C586.23 97.3951 584.478 96.7951 583.278 95.9311C582.03 95.1151 581.166 94.0351 580.686 92.6911C580.302 91.6831 580.086 90.2911 580.038 88.5151C579.99 86.7871 579.966 84.9631 579.966 83.0431L579.966 58.5631L614.094 98.4511L628.71 98.4511L628.71 97.7311C627.942 97.6351 627.15 97.4671 626.334 97.2271C625.47 97.0351 624.678 96.6751 623.958 96.1471C623.238 95.6671 622.614 94.9711 622.086 94.0591C621.558 93.1951 621.222 92.0671 621.078 90.6751C621.03 89.2831 621.006 88.1071 621.006 87.1471C621.006 86.2351 621.006 85.3471 621.006 84.4831C621.006 83.6191 621.006 82.7311 621.006 81.8191C621.006 80.9071 621.006 79.7551 621.006 78.3631C621.006 75.1471 621.03 72.1231 621.078 69.2911C621.126 66.5071 621.198 64.0831 621.294 62.0191C621.39 59.2831 621.534 56.9311 621.726 54.9631C621.918 52.9951 622.35 51.5071 623.022 50.4991C623.694 49.4431 624.606 48.6751 625.758 48.1951C626.91 47.7631 628.062 47.4751 629.214 47.3311L629.214 46.6111L611.502 46.6111L611.502 47.3311C613.47 47.5711 615.03 47.9551 616.182 48.4831C617.286 49.0591 618.102 49.8991 618.63 51.0031C619.11 51.9631 619.422 53.4271 619.566 55.3951C619.662 57.3631 619.71 59.5711 619.71 62.0191L619.71 92.4031C616.446 88.7551 613.35 85.2271 610.422 81.8191C607.494 78.4111 604.518 74.9071 601.494 71.3071C598.422 67.7551 595.206 64.0111 591.846 60.0751C588.486 56.1391 584.766 51.8191 580.686 47.1151C580.206 46.6351 579.774 46.3951 579.39 46.3951C579.15 46.3951 578.982 46.4671 578.886 46.6111C578.742 46.7071 578.67 46.8511 578.67 47.0431C578.67 48.4351 578.67 49.9951 578.67 51.7231C578.67 53.4511 578.694 55.1791 578.742 56.9071C578.742 58.6831 578.742 60.4111 578.742 62.0911C578.742 63.8191 578.742 65.3551 578.742 66.6991C578.742 69.9151 578.718 72.9151 578.67 75.6991C578.574 78.5311 578.478 80.9791 578.382 83.0431C578.286 85.2511 578.19 87.3151 578.094 89.2351C577.998 91.2031 577.782 92.5471 577.446 93.2671C576.87 94.6591 576.054 95.6911 574.998 96.3631C573.894 97.0351 572.454 97.4911 570.678 97.7311ZM517.974 60.3631L518.766 60.5791C519.966 58.5151 521.142 56.7391 522.294 55.2511C523.398 53.8111 524.55 52.5871 525.75 51.5791C526.95 50.5711 528.198 49.7791 529.494 49.2031C530.79 48.6751 532.206 48.3151 533.742 48.1231C535.134 47.9311 536.478 47.8111 537.774 47.7631C539.022 47.7151 540.054 47.6911 540.87 47.6911C542.79 47.6911 544.566 47.8351 546.198 48.1231C547.83 48.4111 548.862 48.8911 549.294 49.5631C549.726 50.2351 550.014 51.2431 550.158 52.5871C550.254 53.9791 550.326 55.4431 550.374 56.9791C550.374 57.4591 550.398 58.0351 550.446 58.7071C550.446 59.4271 550.446 60.1711 550.446 60.9391C550.446 61.7551 550.446 62.5711 550.446 63.3871C550.446 64.2031 550.446 64.9231 550.446 65.5471C550.446 66.9391 550.446 68.2831 550.446 69.5791C550.446 70.8751 550.398 71.8591 550.302 72.5311C549.534 72.5311 548.91 72.5311 548.43 72.5311C547.902 72.5311 547.422 72.5311 546.99 72.5311C546.51 72.5311 546.03 72.5071 545.55 72.4591C545.07 72.4591 544.47 72.4351 543.75 72.3871C542.31 72.2911 541.062 72.0271 540.006 71.5951C538.902 71.1631 537.966 70.6111 537.198 69.9391C536.334 69.1231 535.518 67.8991 534.75 66.2671C533.934 64.6351 533.334 63.0511 532.95 61.5151L532.086 61.5151L532.086 84.1951L532.95 84.1951C533.238 82.8511 533.574 81.6271 533.958 80.5231C534.294 79.4671 534.774 78.5311 535.398 77.7151C535.974 76.8991 536.742 76.2031 537.702 75.6271C538.662 75.0511 539.862 74.5951 541.302 74.2591C541.926 74.1151 542.718 73.9951 543.678 73.8991C544.59 73.8511 545.526 73.8031 546.486 73.7551C547.398 73.7071 548.214 73.6831 548.934 73.6831C549.654 73.6831 550.134 73.6831 550.374 73.6831C550.374 73.8271 550.374 74.0911 550.374 74.4751C550.374 74.9071 550.398 75.5071 550.446 76.2751C550.446 77.0911 550.446 78.1231 550.446 79.3711C550.446 80.6191 550.446 82.1551 550.446 83.9791C550.446 87.1471 550.422 89.9311 550.374 92.3311C550.278 94.7311 550.182 96.3151 550.086 97.0831C549.606 97.1791 548.838 97.2511 547.782 97.2991C546.678 97.3951 545.622 97.4431 544.614 97.4431C541.446 97.4431 538.758 97.2991 536.55 97.0111C534.342 96.7231 532.83 96.3871 532.014 96.0031C528.606 94.3231 524.958 91.0591 521.07 86.2111L520.35 86.5711L525.246 98.4511L564.99 98.4511L564.99 97.7311C563.694 97.5391 562.638 97.3231 561.822 97.0831C561.006 96.8911 560.238 96.4111 559.518 95.6431C559.23 95.3551 559.014 94.8751 558.87 94.2031C558.678 93.5791 558.558 92.8591 558.51 92.0431C558.414 91.2271 558.366 90.3631 558.366 89.4511C558.318 88.5391 558.294 87.6511 558.294 86.7871L558.294 72.7471C558.294 71.4511 558.294 70.0591 558.294 68.5711C558.294 67.1311 558.318 65.7151 558.366 64.3231C558.366 62.9791 558.39 61.7311 558.438 60.5791C558.438 59.4271 558.438 58.5151 558.438 57.8431C558.438 57.0751 558.462 56.2831 558.51 55.4671C558.558 54.6991 558.654 53.9551 558.798 53.2351C558.894 52.5151 559.014 51.8671 559.158 51.2911C559.302 50.7631 559.494 50.3551 559.734 50.0671C560.406 49.2991 561.27 48.6991 562.326 48.2671C563.334 47.8351 564.438 47.5231 565.638 47.3311L565.638 46.6111L521.574 46.6111L517.974 60.3631ZM439.286 81.4591L439.286 82.323L464.414 81.7471L464.414 80.8831C463.31 80.8351 462.206 80.7631 461.102 80.6671C459.998 80.6191 458.99 80.4511 458.078 80.1631C457.166 79.8751 456.446 79.4431 455.918 78.8671C455.342 78.2911 455.054 77.4751 455.054 76.4191C455.054 75.7951 455.27 74.9551 455.702 73.8991C456.134 72.8911 456.734 71.7631 457.502 70.5151C458.222 69.2671 459.086 67.9471 460.094 66.5551C461.054 65.1631 462.086 63.7711 463.19 62.3791C464.006 63.7231 464.99 65.1871 466.142 66.7711C467.246 68.3551 468.47 69.9151 469.814 71.4511C471.014 72.7951 472.238 74.0911 473.486 75.3391C474.734 76.6351 476.102 77.8591 477.59 79.0111C477.11 79.2991 476.414 79.7551 475.502 80.3791C474.59 81.0031 473.702 81.7711 472.838 82.6831C471.926 83.6431 471.134 84.7471 470.462 85.9951C469.79 87.2431 469.454 88.6351 469.454 90.1711C469.454 91.7071 469.766 93.0511 470.39 94.2031C471.014 95.3551 471.83 96.2911 472.838 97.0111C473.798 97.7791 474.902 98.3551 476.15 98.7391C477.398 99.1231 478.67 99.3151 479.966 99.3151C481.454 99.3151 482.942 99.0511 484.43 98.5231C485.87 97.9951 487.19 97.2511 488.39 96.2911C489.542 95.3791 490.502 94.2511 491.27 92.9071C491.99 91.6111 492.35 90.1711 492.35 88.5871C492.35 87.0031 492.158 85.6351 491.774 84.4831C491.342 83.3311 490.79 82.2751 490.118 81.3151C489.446 80.3551 488.654 79.4191 487.742 78.5071C486.83 77.6431 485.846 76.6591 484.79 75.5551C486.422 74.7391 488.078 73.7791 489.758 72.6751C491.438 71.6191 492.974 70.3951 494.366 69.0031C495.71 67.6591 496.814 66.1231 497.678 64.3951C498.494 62.7151 498.902 60.8671 498.902 58.8511C498.902 57.1231 498.59 55.4671 497.966 53.8831C497.294 52.2991 496.358 50.9071 495.158 49.7071C493.958 48.5551 492.47 47.6431 490.694 46.9711C488.918 46.3471 486.926 46.0351 484.718 46.0351C482.75 46.0351 480.878 46.3471 479.102 46.9711C477.326 47.6431 475.718 48.4831 474.278 49.4911C472.79 50.4991 471.494 51.5791 470.39 52.7311C469.286 53.8831 468.422 54.9151 467.798 55.8271C466.982 54.5311 466.07 53.2591 465.062 52.0111C464.054 50.8111 462.974 49.7311 461.822 48.7711C460.622 47.8111 459.35 47.0671 458.006 46.5391C456.662 45.9631 455.198 45.675 453.614 45.675C451.934 45.675 450.326 46.011 448.79 46.683C447.206 47.355 445.79 48.219 444.542 49.275C443.294 50.331 442.238 51.459 441.374 52.659C440.462 53.907 439.838 55.011 439.502 55.971L440.15 56.259C440.486 55.683 440.942 55.059 441.518 54.387C442.094 53.715 442.742 53.091 443.462 52.515C444.182 51.939 444.974 51.459 445.838 51.075C446.654 50.691 447.542 50.499 448.502 50.499C450.374 50.499 451.958 50.907 453.254 51.723C454.502 52.5391 455.75 53.5951 456.998 54.8911C458.294 56.2351 459.374 57.4591 460.238 58.5631C461.102 59.7151 461.87 60.7231 462.542 61.5871C460.622 63.7951 458.798 66.0031 457.07 68.2111C455.342 70.4671 453.59 72.5071 451.814 74.3311C449.99 76.2031 448.07 77.7631 446.054 79.0111C444.038 80.3071 441.782 81.1231 439.286 81.4591ZM474.71 88.7311C474.71 86.7151 474.998 85.0111 475.574 83.6191C476.102 82.2271 476.99 80.8831 478.238 79.5871C479.534 80.7391 480.662 81.7231 481.622 82.5391C482.534 83.4031 483.398 84.4111 484.214 85.5631C484.934 86.5711 485.438 87.5071 485.726 88.3711C486.014 89.2351 486.158 90.4351 486.158 91.9711C486.158 92.5471 486.062 93.1711 485.87 93.8431C485.678 94.5151 485.39 95.1391 485.006 95.7151C484.622 96.2911 484.118 96.7711 483.494 97.1551C482.87 97.5391 482.126 97.7311 481.262 97.7311C480.302 97.7311 479.414 97.4671 478.598 96.9391C477.782 96.4111 477.086 95.7151 476.51 94.8511C475.934 94.0351 475.502 93.0751 475.214 91.9711C474.878 90.9151 474.71 89.8351 474.71 88.7311ZM468.302 56.6191C469.31 55.7071 470.27 54.8911 471.182 54.1711C472.094 53.4991 473.054 52.9231 474.062 52.4431C475.022 52.0111 476.078 51.6751 477.23 51.4351C478.382 51.1951 479.702 51.0751 481.19 51.0751C482.678 51.0751 484.046 51.3391 485.294 51.8671C486.542 52.4431 487.622 53.2111 488.534 54.1711C489.446 55.1791 490.142 56.3311 490.622 57.6271C491.102 58.9231 491.342 60.2911 491.342 61.7311C491.342 63.1711 491.126 64.5391 490.694 65.8351C490.214 67.1791 489.614 68.4031 488.894 69.5071C488.174 70.6111 487.382 71.6191 486.518 72.5311C485.654 73.4431 484.814 74.2351 483.998 74.9071C483.518 74.4751 482.942 73.9471 482.27 73.3231C481.55 72.6991 480.83 72.0271 480.11 71.3071C479.342 70.6351 478.622 69.9391 477.95 69.2191C477.23 68.4991 476.63 67.8511 476.15 67.2751C475.286 66.2191 474.518 65.2591 473.846 64.3951C473.126 63.5791 472.478 62.7631 471.902 61.9471C471.278 61.1791 470.678 60.3631 470.102 59.4991C469.526 58.6831 468.926 57.7231 468.302 56.6191ZM368.331 46.611L368.331 47.331C370.587 47.667 372.555 48.411 374.235 49.563C375.915 50.715 377.643 52.539 379.419 55.035C380.571 56.667 381.891 58.539 383.379 60.651C384.819 62.763 386.163 64.731 387.411 66.555C388.131 67.563 388.875 68.475 389.643 69.291C390.411 70.107 391.203 70.731 392.019 71.163L392.019 71.379C390.435 71.907 388.923 72.555 387.483 73.323C386.043 74.091 384.795 75.003 383.739 76.059C382.635 77.163 381.771 78.411 381.147 79.803C380.475 81.243 380.139 82.851 380.139 84.627C380.139 87.507 380.787 89.883 382.083 91.755C383.379 93.675 385.083 95.187 387.195 96.291C389.259 97.395 391.539 98.043 394.035 98.235C396.531 98.427 399.387 98.523 402.603 98.523C403.899 98.523 405.579 98.523 407.643 98.523C409.707 98.523 411.771 98.499 413.835 98.451C415.899 98.451 417.747 98.451 419.379 98.451C420.963 98.451 421.947 98.451 422.331 98.451L422.331 97.731C421.035 97.539 419.955 97.299 419.091 97.011C418.179 96.771 417.363 96.267 416.643 95.499C416.355 95.211 416.139 94.731 415.995 94.059C415.803 93.435 415.683 92.715 415.635 91.899C415.539 91.131 415.491 90.291 415.491 89.379C415.443 88.515 415.419 87.651 415.419 86.787L415.419 72.747C415.419 71.451 415.419 70.059 415.419 68.571C415.419 67.131 415.443 65.715 415.491 64.323C415.491 62.979 415.515 61.731 415.563 60.579C415.563 59.427 415.563 58.515 415.563 57.843C415.563 57.075 415.587 56.283 415.635 55.467C415.683 54.651 415.755 53.883 415.851 53.163C415.899 52.443 415.995 51.795 416.139 51.219C416.283 50.643 416.475 50.211 416.715 49.923C417.339 49.155 418.203 48.579 419.307 48.195C420.411 47.811 421.563 47.523 422.763 47.331L422.763 46.611L399.723 46.611L399.723 47.331C401.691 47.427 403.227 47.787 404.331 48.411C405.435 49.083 406.179 49.731 406.563 50.355C407.043 51.075 407.307 51.987 407.355 53.091C407.403 54.195 407.451 55.515 407.499 57.051C407.547 58.635 407.571 60.579 407.571 62.883C407.571 65.187 407.571 67.899 407.571 71.019C406.899 70.971 406.347 70.947 405.915 70.947C405.435 70.947 404.739 70.851 403.827 70.659C402.579 70.419 401.403 69.819 400.299 68.859C399.147 67.899 398.091 66.867 397.131 65.763C395.979 64.419 394.995 63.195 394.179 62.091C393.315 61.035 392.523 59.979 391.803 58.923C391.083 57.867 390.387 56.787 389.715 55.683C388.995 54.627 388.179 53.427 387.267 52.083C386.499 50.979 385.947 50.139 385.611 49.563C385.227 49.035 384.915 48.627 384.675 48.339C384.435 48.051 384.219 47.787 384.027 47.547C383.835 47.355 383.523 47.043 383.091 46.611L368.331 46.611ZM388.419 85.059C388.419 83.763 388.587 82.515 388.923 81.315C389.259 80.115 389.787 78.987 390.507 77.931C391.179 76.923 392.067 76.011 393.171 75.195C394.275 74.379 395.595 73.731 397.131 73.251C398.715 72.723 400.371 72.363 402.099 72.171C403.779 72.027 405.603 71.955 407.571 71.955C407.571 72.339 407.571 73.251 407.571 74.691C407.571 76.179 407.571 77.907 407.571 79.875C407.571 81.843 407.571 83.883 407.571 85.995C407.523 88.107 407.475 90.003 407.427 91.683C407.379 92.787 407.355 93.627 407.355 94.203C407.307 94.827 407.283 95.307 407.283 95.643C407.235 95.979 407.187 96.243 407.139 96.435C407.091 96.675 407.043 96.939 406.995 97.227C406.659 97.275 406.179 97.323 405.555 97.371C404.931 97.419 404.115 97.443 403.107 97.443C401.715 97.443 400.395 97.323 399.147 97.083C397.851 96.843 396.627 96.459 395.475 95.931C393.171 94.827 391.419 93.339 390.219 91.467C389.019 89.595 388.419 87.459 388.419 85.059ZM314.784 72.891C314.784 76.347 315.384 79.659 316.584 82.827C317.784 85.995 319.512 88.779 321.768 91.179C324.024 93.627 326.784 95.571 330.048 97.011C333.264 98.451 336.912 99.171 340.992 99.171C344.736 99.171 348.312 98.547 351.72 97.299C355.08 96.099 358.032 94.347 360.576 92.043C363.072 89.787 365.064 87.003 366.552 83.691C368.04 80.427 368.784 76.731 368.784 72.603C368.784 68.715 368.088 65.139 366.696 61.875C365.256 58.659 363.312 55.875 360.864 53.523C358.416 51.219 355.56 49.419 352.296 48.123C349.032 46.875 345.576 46.251 341.928 46.251C338.232 46.251 334.752 46.899 331.488 48.195C328.176 49.491 325.296 51.339 322.848 53.739C320.352 56.139 318.384 58.971 316.944 62.235C315.504 65.499 314.784 69.051 314.784 72.891ZM323.712 72.819C323.712 69.795 324.096 66.771 324.864 63.747C325.584 60.723 326.688 57.987 328.176 55.539C329.664 53.139 331.536 51.171 333.792 49.635C336 48.099 338.616 47.331 341.64 47.331C344.664 47.331 347.328 48.027 349.632 49.419C351.888 50.811 353.784 52.659 355.32 54.963C356.808 57.267 357.936 59.931 358.704 62.955C359.472 65.979 359.856 69.123 359.856 72.387C359.856 75.507 359.52 78.579 358.848 81.603C358.128 84.675 357.048 87.411 355.608 89.811C354.12 92.211 352.248 94.155 349.992 95.643C347.688 97.179 344.976 97.947 341.856 97.947C338.784 97.947 336.12 97.179 333.864 95.643C331.608 94.155 329.736 92.187 328.248 89.739C326.712 87.339 325.584 84.651 324.864 81.675C324.096 78.699 323.712 75.747 323.712 72.819ZM263.475 60.795C263.475 62.715 263.883 64.419 264.699 65.907C265.467 67.443 266.523 68.763 267.867 69.867C269.163 70.971 270.651 71.835 272.331 72.459C274.011 73.131 275.715 73.563 277.443 73.755L277.443 74.043C274.179 74.715 271.539 76.011 269.523 77.931C267.459 79.899 266.427 82.467 266.427 85.635C266.427 88.515 267.219 90.891 268.803 92.763C270.387 94.635 272.403 96.027 274.851 96.939C276.387 97.515 277.995 97.899 279.675 98.091C281.307 98.331 283.035 98.451 284.859 98.451L309.123 98.451L309.123 97.731C307.827 97.587 306.819 97.371 306.099 97.083C305.379 96.843 304.659 96.339 303.939 95.571C303.651 95.283 303.435 94.803 303.291 94.131C303.099 93.507 302.955 92.787 302.859 91.971C302.715 91.155 302.619 90.291 302.571 89.379C302.523 88.515 302.499 87.651 302.499 86.787C302.499 85.347 302.499 84.075 302.499 82.971C302.451 81.867 302.427 80.787 302.427 79.731C302.427 78.723 302.427 77.667 302.427 76.563C302.427 75.459 302.427 74.187 302.427 72.747C302.427 71.451 302.427 70.059 302.427 68.571C302.427 67.131 302.451 65.715 302.499 64.323C302.499 62.979 302.523 61.731 302.571 60.579C302.571 59.427 302.571 58.515 302.571 57.843C302.571 57.075 302.595 56.283 302.643 55.467C302.691 54.699 302.787 53.955 302.931 53.235C303.027 52.515 303.147 51.867 303.291 51.291C303.435 50.763 303.627 50.355 303.867 50.067C304.539 49.299 305.427 48.699 306.531 48.267C307.587 47.835 308.715 47.523 309.915 47.331L309.915 46.611L285.075 46.611C282.963 46.611 280.779 46.683 278.523 46.827C276.267 46.971 274.227 47.379 272.403 48.051C271.347 48.435 270.291 48.987 269.235 49.707C268.179 50.475 267.219 51.387 266.355 52.443C265.491 53.499 264.795 54.723 264.267 56.115C263.739 57.507 263.475 59.067 263.475 60.795ZM274.707 85.635C274.707 82.371 275.835 79.635 278.091 77.427C280.299 75.219 283.563 73.995 287.883 73.755C288.555 73.707 289.443 73.683 290.547 73.683C291.651 73.683 292.995 73.683 294.579 73.683C294.579 73.923 294.579 74.691 294.579 75.987C294.579 77.283 294.579 78.819 294.579 80.595C294.579 82.419 294.579 84.339 294.579 86.355C294.531 88.371 294.483 90.219 294.435 91.899C294.387 92.763 294.363 93.459 294.363 93.987C294.315 94.515 294.291 94.947 294.291 95.283C294.243 95.667 294.195 95.979 294.147 96.219C294.099 96.459 294.051 96.723 294.003 97.011C293.571 97.155 292.947 97.275 292.131 97.371C291.315 97.467 290.403 97.515 289.395 97.515C286.035 97.515 283.275 97.035 281.115 96.075C279.291 95.259 277.779 93.915 276.579 92.043C275.331 90.171 274.707 88.035 274.707 85.635ZM271.899 60.003C271.899 57.555 272.451 55.443 273.555 53.667C274.659 51.939 276.219 50.547 278.235 49.491C279.771 48.675 281.355 48.171 282.987 47.979C284.619 47.787 286.131 47.691 287.523 47.691C289.155 47.691 290.403 47.859 291.267 48.195C292.131 48.579 292.779 49.035 293.211 49.563C293.787 50.331 294.147 51.291 294.291 52.443C294.387 53.643 294.459 55.155 294.507 56.979C294.507 57.795 294.531 58.755 294.579 59.859C294.579 61.011 294.579 62.259 294.579 63.603C294.579 64.995 294.579 66.459 294.579 67.995C294.579 69.531 294.579 71.067 294.579 72.603L287.595 72.603C286.203 72.603 285.003 72.531 283.995 72.387C282.939 72.291 281.883 72.075 280.827 71.739C279.531 71.307 278.355 70.707 277.299 69.939C276.195 69.219 275.259 68.331 274.491 67.275C273.675 66.267 273.051 65.139 272.619 63.891C272.139 62.691 271.899 61.395 271.899 60.003ZM208.459 60.363L209.251 60.579C210.451 58.515 211.627 56.739 212.779 55.251C213.883 53.811 215.035 52.587 216.235 51.579C217.435 50.571 218.683 49.779 219.979 49.203C221.275 48.675 222.691 48.315 224.227 48.123C225.619 47.931 226.963 47.811 228.259 47.763C229.507 47.715 230.539 47.691 231.355 47.691C233.275 47.691 235.051 47.835 236.683 48.123C238.315 48.411 239.347 48.891 239.779 49.563C240.211 50.235 240.499 51.243 240.643 52.587C240.739 53.979 240.811 55.443 240.859 56.979C240.859 57.459 240.883 58.035 240.931 58.707C240.931 59.427 240.931 60.171 240.931 60.939C240.931 61.755 240.931 62.571 240.931 63.387C240.931 64.203 240.931 64.923 240.931 65.547C240.931 66.939 240.931 68.283 240.931 69.579C240.931 70.875 240.883 71.859 240.787 72.531C240.019 72.531 239.395 72.531 238.915 72.531C238.387 72.531 237.907 72.531 237.475 72.531C236.995 72.531 236.515 72.507 236.035 72.459C235.555 72.459 234.955 72.435 234.235 72.387C232.795 72.291 231.547 72.027 230.491 71.595C229.387 71.163 228.451 70.611 227.683 69.939C226.819 69.123 226.003 67.899 225.235 66.267C224.419 64.635 223.819 63.051 223.435 61.515L222.571 61.515L222.571 84.195L223.435 84.195C223.723 82.851 224.059 81.627 224.443 80.523C224.779 79.467 225.259 78.531 225.883 77.715C226.459 76.899 227.227 76.203 228.187 75.627C229.147 75.051 230.347 74.595 231.787 74.259C232.411 74.115 233.203 73.995 234.163 73.899C235.075 73.851 236.011 73.803 236.971 73.755C237.883 73.707 238.699 73.683 239.419 73.683C240.139 73.683 240.619 73.683 240.859 73.683C240.859 73.827 240.859 74.091 240.859 74.475C240.859 74.907 240.883 75.507 240.931 76.275C240.931 77.091 240.931 78.123 240.931 79.371C240.931 80.619 240.931 82.155 240.931 83.979C240.931 87.147 240.907 89.931 240.859 92.331C240.763 94.731 240.667 96.315 240.571 97.083C240.091 97.179 239.323 97.251 238.267 97.299C237.163 97.395 236.107 97.443 235.099 97.443C231.931 97.443 229.243 97.299 227.035 97.011C224.827 96.723 223.315 96.387 222.499 96.003C219.091 94.323 215.443 91.059 211.555 86.211L210.835 86.571L215.731 98.451L255.475 98.451L255.475 97.731C254.179 97.539 253.123 97.323 252.307 97.083C251.491 96.891 250.723 96.411 250.003 95.643C249.715 95.355 249.499 94.875 249.355 94.203C249.163 93.579 249.043 92.859 248.995 92.043C248.899 91.227 248.851 90.363 248.851 89.451C248.803 88.539 248.779 87.651 248.779 86.787L248.779 72.747C248.779 71.451 248.779 70.059 248.779 68.571C248.779 67.131 248.803 65.715 248.851 64.323C248.851 62.979 248.875 61.731 248.923 60.579C248.923 59.427 248.923 58.515 248.923 57.843C248.923 57.075 248.947 56.283 248.995 55.467C249.043 54.699 249.139 53.955 249.283 53.235C249.379 52.515 249.499 51.867 249.643 51.291C249.787 50.763 249.979 50.355 250.219 50.067C250.891 49.299 251.755 48.699 252.811 48.267C253.819 47.835 254.923 47.523 256.123 47.331L256.123 46.611L212.059 46.611L208.459 60.363ZM150.503 46.611L150.503 47.331C152.759 47.667 154.727 48.411 156.407 49.563C158.087 50.715 159.815 52.539 161.591 55.035C162.743 56.667 164.063 58.539 165.551 60.651C166.991 62.763 168.335 64.731 169.583 66.555C170.303 67.563 171.047 68.475 171.815 69.291C172.583 70.107 173.375 70.731 174.191 71.163L174.191 71.379C172.607 71.907 171.095 72.555 169.655 73.323C168.215 74.091 166.967 75.003 165.911 76.059C164.807 77.163 163.943 78.411 163.319 79.803C162.647 81.243 162.311 82.851 162.311 84.627C162.311 87.507 162.959 89.883 164.255 91.755C165.551 93.675 167.255 95.187 169.367 96.291C171.431 97.395 173.711 98.043 176.207 98.235C178.703 98.427 181.559 98.523 184.775 98.523C186.071 98.523 187.751 98.523 189.815 98.523C191.879 98.523 193.943 98.499 196.007 98.451C198.071 98.451 199.919 98.451 201.551 98.451C203.135 98.451 204.119 98.451 204.503 98.451L204.503 97.731C203.207 97.539 202.127 97.299 201.263 97.011C200.351 96.771 199.535 96.267 198.815 95.499C198.527 95.211 198.311 94.731 198.167 94.059C197.975 93.435 197.855 92.715 197.807 91.899C197.711 91.131 197.663 90.291 197.663 89.379C197.615 88.515 197.591 87.651 197.591 86.787L197.591 72.747C197.591 71.451 197.591 70.059 197.591 68.571C197.591 67.131 197.615 65.715 197.663 64.323C197.663 62.979 197.687 61.731 197.735 60.579C197.735 59.427 197.735 58.515 197.735 57.843C197.735 57.075 197.759 56.283 197.807 55.467C197.855 54.651 197.927 53.883 198.023 53.163C198.071 52.443 198.167 51.795 198.311 51.219C198.455 50.643 198.647 50.211 198.887 49.923C199.511 49.155 200.375 48.579 201.479 48.195C202.583 47.811 203.735 47.523 204.935 47.331L204.935 46.611L181.895 46.611L181.895 47.331C183.863 47.427 185.399 47.787 186.503 48.411C187.607 49.083 188.351 49.731 188.735 50.355C189.215 51.075 189.479 51.987 189.527 53.091C189.575 54.195 189.623 55.515 189.671 57.051C189.719 58.635 189.743 60.579 189.743 62.883C189.743 65.187 189.743 67.899 189.743 71.019C189.071 70.971 188.519 70.947 188.087 70.947C187.607 70.947 186.911 70.851 185.999 70.659C184.751 70.419 183.575 69.819 182.471 68.859C181.319 67.899 180.263 66.867 179.303 65.763C178.151 64.419 177.167 63.195 176.351 62.091C175.487 61.035 174.695 59.979 173.975 58.923C173.255 57.867 172.559 56.787 171.887 55.683C171.167 54.627 170.351 53.427 169.439 52.083C168.671 50.979 168.119 50.139 167.783 49.563C167.399 49.035 167.087 48.627 166.847 48.339C166.607 48.051 166.391 47.787 166.199 47.547C166.007 47.355 165.695 47.043 165.263 46.611L150.503 46.611ZM170.591 85.059C170.591 83.763 170.759 82.515 171.095 81.315C171.431 80.115 171.959 78.987 172.679 77.931C173.351 76.923 174.239 76.011 175.343 75.195C176.447 74.379 177.767 73.731 179.303 73.251C180.887 72.723 182.543 72.363 184.271 72.171C185.951 72.027 187.775 71.955 189.743 71.955C189.743 72.339 189.743 73.251 189.743 74.691C189.743 76.179 189.743 77.907 189.743 79.875C189.743 81.843 189.743 83.883 189.743 85.995C189.695 88.107 189.647 90.003 189.599 91.683C189.551 92.787 189.527 93.627 189.527 94.203C189.479 94.827 189.455 95.307 189.455 95.643C189.407 95.979 189.359 96.243 189.311 96.435C189.263 96.675 189.215 96.939 189.167 97.227C188.831 97.275 188.351 97.323 187.727 97.371C187.103 97.419 186.287 97.443 185.279 97.443C183.887 97.443 182.567 97.323 181.319 97.083C180.023 96.843 178.799 96.459 177.647 95.931C175.343 94.827 173.591 93.339 172.391 91.467C171.191 89.595 170.591 87.459 170.591 85.059ZM99.0435 85.131L101.347 99.171C102.451 98.835 103.531 98.547 104.587 98.307C105.595 98.115 106.891 97.995 108.475 97.947C110.299 97.947 111.931 97.923 113.371 97.875C114.811 97.875 116.203 97.851 117.547 97.803C118.891 97.803 120.283 97.803 121.723 97.803C123.115 97.803 124.699 97.803 126.475 97.803C128.251 97.803 129.859 97.803 131.299 97.803C132.691 97.803 134.059 97.803 135.403 97.803C136.747 97.803 138.139 97.803 139.579 97.803C141.019 97.851 142.651 97.899 144.475 97.947C146.251 97.995 147.619 98.091 148.579 98.235C149.491 98.379 150.499 98.571 151.603 98.811L153.763 85.131L153.115 84.915C152.827 85.779 152.443 86.667 151.963 87.579C151.435 88.491 150.907 89.331 150.379 90.099C149.803 90.915 149.275 91.659 148.795 92.331C148.267 93.003 147.811 93.507 147.427 93.843C146.419 94.803 145.339 95.475 144.187 95.859C142.987 96.243 141.475 96.459 139.651 96.507C138.739 96.507 137.947 96.507 137.275 96.507C136.555 96.555 135.883 96.579 135.259 96.579C134.587 96.579 133.891 96.579 133.171 96.579C132.403 96.579 131.515 96.579 130.507 96.579L130.507 72.747C130.507 71.451 130.507 70.083 130.507 68.643C130.507 67.203 130.531 65.811 130.579 64.467C130.579 63.123 130.603 61.899 130.651 60.795C130.651 59.691 130.651 58.803 130.651 58.131C130.651 57.363 130.675 56.571 130.723 55.755C130.723 54.939 130.771 54.171 130.867 53.451C130.915 52.779 131.011 52.155 131.155 51.579C131.251 51.051 131.419 50.667 131.659 50.427C132.763 49.179 133.891 48.387 135.043 48.051C136.195 47.715 137.395 47.475 138.643 47.331L138.643 46.611L115.243 46.611L115.243 47.331C116.299 47.523 117.499 47.811 118.843 48.195C120.139 48.579 121.147 49.299 121.867 50.355C122.251 50.883 122.491 51.771 122.587 53.019C122.635 54.315 122.659 55.659 122.659 57.051L122.659 73.035C122.659 74.523 122.659 76.347 122.659 78.507C122.659 80.715 122.659 82.947 122.659 85.203C122.659 87.459 122.659 89.619 122.659 91.683C122.611 93.747 122.587 95.379 122.587 96.579C121.531 96.579 120.643 96.579 119.923 96.579C119.155 96.579 118.459 96.579 117.835 96.579C117.163 96.579 116.491 96.555 115.819 96.507C115.147 96.507 114.355 96.507 113.443 96.507C111.619 96.459 110.131 96.267 108.979 95.931C107.779 95.643 106.675 95.019 105.667 94.059C105.283 93.723 104.827 93.195 104.299 92.475C103.771 91.803 103.243 91.059 102.715 90.243C102.139 89.427 101.587 88.539 101.059 87.579C100.531 86.667 100.075 85.779 99.6915 84.915L99.0435 85.131Z" fill="#102342"/>
<rect x="-0.000976562" y="145.611" width="811.002" height="15" fill="#102342"/>
</g>
<defs>
<clipPath id="clip0_204_1242">
<rect width="811" height="161" fill="white"/>
</clipPath>
</defs>
</svg>
